<?xml version="1.0" encoding="UTF-8" standalone="no"?>
<!-- Created with Inkscape (http://www.inkscape.org/) -->

<svg
   width="26.435547mm"
   height="26.435549mm"
   viewBox="0 0 26.435547 26.435549"
   version="1.1"
   id="svg1"
   inkscape:version="1.3 (0e150ed6c4, 2023-07-21)"
   sodipodi:docname="chat-avatar-src.svg"
   xmlns:inkscape="http://www.inkscape.org/namespaces/inkscape"
   xmlns:sodipodi="http://sodipodi.sourceforge.net/DTD/sodipodi-0.dtd"
   xmlns="http://www.w3.org/2000/svg"
   xmlns:svg="http://www.w3.org/2000/svg">
  <sodipodi:namedview
     id="namedview1"
     pagecolor="#ffffff"
     bordercolor="#000000"
     borderopacity="0.25"
     inkscape:showpageshadow="2"
     inkscape:pageopacity="0.0"
     inkscape:pagecheckerboard="0"
     inkscape:deskcolor="#d1d1d1"
     inkscape:document-units="mm"
     inkscape:zoom="1.4627806"
     inkscape:cx="336.68754"
     inkscape:cy="229.35771"
     inkscape:window-width="1920"
     inkscape:window-height="1017"
     inkscape:window-x="-8"
     inkscape:window-y="-8"
     inkscape:window-maximized="1"
     inkscape:current-layer="layer1"
     showgrid="false" />
  <defs
     id="defs1" />
  <g
     inkscape:label="Layer 1"
     inkscape:groupmode="layer"
     id="layer1"
     transform="translate(-135.23047,-70.117186)">
    <g
       id="g41"
       inkscape:export-filename="placeholder-Q.svg"
       inkscape:export-xdpi="96"
       inkscape:export-ydpi="96"
       inkscape:label="Placeholder-Q">
      <path
         style="-inkscape-font-specification:'Gotham Bold';stroke-width:2.73493"
         d="m 154.24769,87.619546 -1.16643,-0.988224 c 0.64802,-0.939623 1.00443,-2.073651 1.00443,-3.256281 v -0.0324 c 0,-3.22388 -2.51106,-5.832144 -6.01035,-5.832144 -3.49929,0 -6.04275,2.640665 -6.04275,5.864544 v 0.0324 c 0,3.22388 2.51106,5.832144 6.01035,5.832144 1.26363,0 2.41386,-0.356409 3.36968,-0.972024 l 1.24743,1.117828 z m -2.77027,-4.212104 c 0,0.567014 -0.0972,1.085427 -0.3078,1.555239 l -1.86305,-1.684842 -1.58764,1.782044 1.84685,1.571439 c -0.43741,0.194405 -0.93963,0.307807 -1.49044,0.307807 -2.00885,0 -3.43448,-1.62004 -3.43448,-3.564088 v -0.0324 c 0,-1.944048 1.39323,-3.531687 3.40208,-3.531687 2.00885,0 3.43448,1.62004 3.43448,3.564087 z"
         id="text17"
         aria-label="Q" />
      <path
         style="color:#000000;fill:#1a1a1a;-inkscape-stroke:none"
         d="m 138.51562,70.117187 c -1.81127,0 -3.28515,1.473885 -3.28515,3.285157 v 19.865234 c 0,1.811272 1.47388,3.285156 3.28515,3.285156 h 19.86524 c 1.81127,0 3.28516,-1.473884 3.28516,-3.285156 V 73.402344 c 0,-1.811272 -1.47389,-3.285157 -3.28516,-3.285157 z m 0,1.007813 h 19.86524 c 1.27017,0 2.27734,1.007175 2.27734,2.277344 v 19.865234 c 0,1.270169 -1.00717,2.277344 -2.27734,2.277344 h -19.86524 c -1.27016,0 -2.27734,-1.007175 -2.27734,-2.277344 V 73.402344 c 0,-1.270169 1.00718,-2.277344 2.27734,-2.277344 z"
         id="rect17" />
    </g>
  </g>
</svg>
