<?xml version="1.0" encoding="UTF-8" standalone="no"?>
<!-- Created with Inkscape (http://www.inkscape.org/) -->

<svg
   width="26.435543mm"
   height="26.435549mm"
   viewBox="0 0 26.435543 26.435549"
   version="1.1"
   id="svg1"
   inkscape:version="1.3 (0e150ed6c4, 2023-07-21)"
   sodipodi:docname="chat-avatar-src.svg"
   xmlns:inkscape="http://www.inkscape.org/namespaces/inkscape"
   xmlns:sodipodi="http://sodipodi.sourceforge.net/DTD/sodipodi-0.dtd"
   xmlns="http://www.w3.org/2000/svg"
   xmlns:svg="http://www.w3.org/2000/svg">
  <sodipodi:namedview
     id="namedview1"
     pagecolor="#ffffff"
     bordercolor="#000000"
     borderopacity="0.25"
     inkscape:showpageshadow="2"
     inkscape:pageopacity="0.0"
     inkscape:pagecheckerboard="0"
     inkscape:deskcolor="#d1d1d1"
     inkscape:document-units="mm"
     inkscape:zoom="1.4627806"
     inkscape:cx="336.68754"
     inkscape:cy="229.35771"
     inkscape:window-width="1920"
     inkscape:window-height="1017"
     inkscape:window-x="-8"
     inkscape:window-y="-8"
     inkscape:window-maximized="1"
     inkscape:current-layer="layer1"
     showgrid="false" />
  <defs
     id="defs1" />
  <g
     inkscape:label="Layer 1"
     inkscape:groupmode="layer"
     id="layer1"
     transform="translate(-67.126955,-70.117186)">
    <g
       id="g47"
       inkscape:export-filename="placeholder-O.svg"
       inkscape:export-xdpi="96"
       inkscape:export-ydpi="96"
       inkscape:label="Placeholder-O">
      <path
         style="-inkscape-font-specification:'Gotham Bold';stroke-width:2.73493"
         d="m 85.982928,83.375041 v -0.0324 c 0,-3.22388 -2.511062,-5.832144 -6.010348,-5.832144 -3.499286,0 -6.042749,2.640665 -6.042749,5.864544 v 0.0324 c 0,3.22388 2.511062,5.832144 6.010348,5.832144 3.499287,0 6.042749,-2.640665 6.042749,-5.864545 z m -2.608264,0.0324 c 0,1.944048 -1.393234,3.531687 -3.402084,3.531687 -2.008849,0 -3.434485,-1.62004 -3.434485,-3.564088 v -0.0324 c 0,-1.944048 1.393235,-3.531687 3.402084,-3.531687 2.00885,0 3.434485,1.62004 3.434485,3.564087 z"
         id="text15"
         aria-label="O" />
      <path
         style="color:#000000;fill:#1a1a1a;-inkscape-stroke:none"
         d="m 70.412109,70.117187 c -1.811271,0 -3.285156,1.473885 -3.285156,3.285157 v 19.865234 c 0,1.811272 1.473885,3.285156 3.285156,3.285156 h 19.865235 c 1.811271,0 3.285156,-1.473884 3.285156,-3.285156 V 73.402344 c 0,-1.811272 -1.473885,-3.285157 -3.285156,-3.285157 z m 0,1.007813 h 19.865235 c 1.270168,0 2.277344,1.007175 2.277343,2.277344 v 19.865234 c 0,1.270169 -1.007175,2.277344 -2.277343,2.277344 H 70.412109 c -1.270168,0 -2.27539,-1.007175 -2.27539,-2.277344 V 73.402344 c 0,-1.270169 1.005222,-2.277344 2.27539,-2.277344 z"
         id="rect15" />
    </g>
  </g>
</svg>
