<?xml version="1.0" encoding="UTF-8" standalone="no"?>
<!-- Created with Inkscape (http://www.inkscape.org/) -->

<svg
   width="26.435543mm"
   height="26.433594mm"
   viewBox="0 0 26.435543 26.433594"
   version="1.1"
   id="svg1"
   inkscape:version="1.3 (0e150ed6c4, 2023-07-21)"
   sodipodi:docname="chat-avatar-src.svg"
   xmlns:inkscape="http://www.inkscape.org/namespaces/inkscape"
   xmlns:sodipodi="http://sodipodi.sourceforge.net/DTD/sodipodi-0.dtd"
   xmlns="http://www.w3.org/2000/svg"
   xmlns:svg="http://www.w3.org/2000/svg">
  <sodipodi:namedview
     id="namedview1"
     pagecolor="#ffffff"
     bordercolor="#000000"
     borderopacity="0.25"
     inkscape:showpageshadow="2"
     inkscape:pageopacity="0.0"
     inkscape:pagecheckerboard="0"
     inkscape:deskcolor="#d1d1d1"
     inkscape:document-units="mm"
     inkscape:zoom="1.4627806"
     inkscape:cx="336.68754"
     inkscape:cy="229.35771"
     inkscape:window-width="1920"
     inkscape:window-height="1017"
     inkscape:window-x="-8"
     inkscape:window-y="-8"
     inkscape:window-maximized="1"
     inkscape:current-layer="layer1"
     showgrid="false" />
  <defs
     id="defs1" />
  <g
     inkscape:label="Layer 1"
     inkscape:groupmode="layer"
     id="layer1"
     transform="translate(-67.126955,-6.6796878)">
    <g
       id="g32"
       inkscape:export-filename="placeholder-C.svg"
       inkscape:export-xdpi="96"
       inkscape:export-ydpi="96"
       inkscape:label="Placeholder-C">
      <path
         style="-inkscape-font-specification:'Gotham Bold';stroke-width:2.73493"
         d="m 85.302508,23.776466 -1.58764,-1.60384 c -0.891022,0.81002 -1.684841,1.328433 -2.980873,1.328433 -1.944048,0 -3.288681,-1.62004 -3.288681,-3.564088 v -0.0324 c 0,-1.944048 1.377034,-3.531687 3.288681,-3.531687 1.134028,0 2.02505,0.486012 2.899871,1.279832 l 1.58764,-1.830645 c -1.053026,-1.036826 -2.332858,-1.749643 -4.471311,-1.749643 -3.483086,0 -5.913146,2.640665 -5.913146,5.864544 v 0.0324 c 0,3.25628 2.478662,5.832144 5.815944,5.832144 2.187054,0 3.483086,-0.777619 4.649515,-2.02505 z"
         id="path6"
         aria-label="C" />
      <path
         style="color:#000000;fill:#1a1a1a;-inkscape-stroke:none"
         d="m 70.412109,6.6796875 c -1.811272,0 -3.285156,1.4738847 -3.285156,3.2851563 V 29.828125 c 0,1.811271 1.473884,3.285156 3.285156,3.285156 h 19.865235 c 1.811271,0 3.285156,-1.473885 3.285156,-3.285156 V 9.9648438 c 0,-1.8112719 -1.473885,-3.2851563 -3.285156,-3.2851563 z m 0,1.0078125 h 19.865235 c 1.270168,0 2.277344,1.0071754 2.277343,2.2773438 V 29.828125 c 0,1.270168 -1.007176,2.277344 -2.277343,2.277344 H 70.412109 c -1.270168,0 -2.27539,-1.007176 -2.27539,-2.277344 V 9.9648438 c 0,-1.2701686 1.005221,-2.2773438 2.27539,-2.2773438 z"
         id="path5" />
    </g>
  </g>
</svg>
