<?xml version="1.0" encoding="UTF-8" standalone="no"?>
<!-- Created with Inkscape (http://www.inkscape.org/) -->

<svg
   width="26.435545mm"
   height="26.433594mm"
   viewBox="0 0 26.435545 26.433594"
   version="1.1"
   id="svg1"
   inkscape:version="1.3 (0e150ed6c4, 2023-07-21)"
   sodipodi:docname="chat-avatar-src.svg"
   xmlns:inkscape="http://www.inkscape.org/namespaces/inkscape"
   xmlns:sodipodi="http://sodipodi.sourceforge.net/DTD/sodipodi-0.dtd"
   xmlns="http://www.w3.org/2000/svg"
   xmlns:svg="http://www.w3.org/2000/svg">
  <sodipodi:namedview
     id="namedview1"
     pagecolor="#ffffff"
     bordercolor="#000000"
     borderopacity="0.25"
     inkscape:showpageshadow="2"
     inkscape:pageopacity="0.0"
     inkscape:pagecheckerboard="0"
     inkscape:deskcolor="#d1d1d1"
     inkscape:document-units="mm"
     inkscape:zoom="1.4627806"
     inkscape:cx="336.68754"
     inkscape:cy="229.35771"
     inkscape:window-width="1920"
     inkscape:window-height="1017"
     inkscape:window-x="-8"
     inkscape:window-y="-8"
     inkscape:window-maximized="1"
     inkscape:current-layer="layer1"
     showgrid="false" />
  <defs
     id="defs1" />
  <g
     inkscape:label="Layer 1"
     inkscape:groupmode="layer"
     id="layer1"
     transform="translate(-9.5722658,-39.166015)">
    <g
       id="g50"
       inkscape:export-filename="placeholder-G.svg"
       inkscape:export-xdpi="96"
       inkscape:export-ydpi="96"
       inkscape:label="Placeholder-G">
      <path
         style="-inkscape-font-specification:'Gotham Bold';stroke-width:2.73493"
         d="m 27.715414,56.489704 v -4.924921 h -4.924922 v 2.154653 h 2.511062 v 1.62004 c -0.631816,0.453611 -1.441836,0.680417 -2.349058,0.680417 -2.008849,0 -3.434485,-1.522838 -3.434485,-3.596489 v -0.0324 c 0,-1.927847 1.441836,-3.531687 3.256281,-3.531687 1.312232,0 2.089851,0.421211 2.964673,1.150229 l 1.571439,-1.895447 c -1.18263,-1.004425 -2.41386,-1.555238 -4.45511,-1.555238 -3.434485,0 -5.945547,2.640665 -5.945547,5.864544 v 0.0324 c 0,3.353483 2.43006,5.832144 5.961747,5.832144 2.073651,0 3.677491,-0.81002 4.84392,-1.798245 z"
         id="text7"
         aria-label="G" />
      <path
         style="color:#000000;fill:#1a1a1a;-inkscape-stroke:none"
         d="m 12.857422,39.166016 c -1.811272,0 -3.2851564,1.473884 -3.2851564,3.285156 v 19.863281 c 0,1.811272 1.4738844,3.285156 3.2851564,3.285156 h 19.865234 c 1.811272,0 3.285157,-1.473884 3.285156,-3.285156 V 42.451172 c 0,-1.811272 -1.473884,-3.285156 -3.285156,-3.285156 z m 0,1.007812 H 32.722656 C 33.992825,40.173828 35,41.181003 35,42.451172 v 19.863281 c 0,1.270169 -1.007175,2.277344 -2.277344,2.277344 H 12.857422 c -1.270169,0 -2.275391,-1.007175 -2.275391,-2.277344 V 42.451172 c 0,-1.270169 1.005222,-2.277344 2.275391,-2.277344 z"
         id="rect7" />
    </g>
  </g>
</svg>
