<?xml version="1.0" encoding="UTF-8" standalone="no"?>
<!-- Created with Inkscape (http://www.inkscape.org/) -->

<svg
   width="26.435547mm"
   height="26.433594mm"
   viewBox="0 0 26.435547 26.433594"
   version="1.1"
   id="svg1"
   inkscape:version="1.3 (0e150ed6c4, 2023-07-21)"
   sodipodi:docname="chat-avatar-src.svg"
   xmlns:inkscape="http://www.inkscape.org/namespaces/inkscape"
   xmlns:sodipodi="http://sodipodi.sourceforge.net/DTD/sodipodi-0.dtd"
   xmlns="http://www.w3.org/2000/svg"
   xmlns:svg="http://www.w3.org/2000/svg">
  <sodipodi:namedview
     id="namedview1"
     pagecolor="#ffffff"
     bordercolor="#000000"
     borderopacity="0.25"
     inkscape:showpageshadow="2"
     inkscape:pageopacity="0.0"
     inkscape:pagecheckerboard="0"
     inkscape:deskcolor="#d1d1d1"
     inkscape:document-units="mm"
     inkscape:zoom="1.4627806"
     inkscape:cx="336.68754"
     inkscape:cy="229.35771"
     inkscape:window-width="1920"
     inkscape:window-height="1017"
     inkscape:window-x="-8"
     inkscape:window-y="-8"
     inkscape:window-maximized="1"
     inkscape:current-layer="layer1"
     showgrid="false" />
  <defs
     id="defs1" />
  <g
     inkscape:label="Layer 1"
     inkscape:groupmode="layer"
     id="layer1"
     transform="translate(-135.23047,-39.166015)">
    <g
       id="g59"
       inkscape:export-filename="placeholder-K.svg"
       inkscape:export-xdpi="96"
       inkscape:export-ydpi="96"
       inkscape:label="Placeholder-K">
      <path
         style="-inkscape-font-specification:'Gotham Bold';stroke-width:2.73493"
         d="m 153.82649,58.093544 -4.82772,-6.528761 4.61711,-4.811519 h -3.01327 l -4.60091,4.957323 v -4.957323 h -2.49487 v 11.34028 h 2.49487 v -3.466885 l 1.31223,-1.360834 3.51549,4.827719 z"
         id="text11"
         aria-label="K" />
      <path
         style="color:#000000;fill:#1a1a1a;-inkscape-stroke:none"
         d="m 138.51562,39.166016 c -1.81127,0 -3.28515,1.473884 -3.28515,3.285156 v 19.863281 c 0,1.811272 1.47388,3.285156 3.28515,3.285156 h 19.86524 c 1.81127,0 3.28516,-1.473884 3.28516,-3.285156 V 42.451172 c 0,-1.811272 -1.47389,-3.285156 -3.28516,-3.285156 z m 0,1.007812 h 19.86524 c 1.27017,0 2.27734,1.007175 2.27734,2.277344 v 19.863281 c 0,1.270169 -1.00717,2.277344 -2.27734,2.277344 h -19.86524 c -1.27016,0 -2.27734,-1.007175 -2.27734,-2.277344 V 42.451172 c 0,-1.270169 1.00718,-2.277344 2.27734,-2.277344 z"
         id="rect11" />
    </g>
  </g>
</svg>
