<?xml version="1.0" encoding="UTF-8" standalone="no"?>
<!-- Created with Inkscape (http://www.inkscape.org/) -->

<svg
   width="26.435547mm"
   height="26.433594mm"
   viewBox="0 0 26.435547 26.433594"
   version="1.1"
   id="svg1"
   inkscape:version="1.3 (0e150ed6c4, 2023-07-21)"
   sodipodi:docname="chat-avatar-src.svg"
   xmlns:inkscape="http://www.inkscape.org/namespaces/inkscape"
   xmlns:sodipodi="http://sodipodi.sourceforge.net/DTD/sodipodi-0.dtd"
   xmlns="http://www.w3.org/2000/svg"
   xmlns:svg="http://www.w3.org/2000/svg">
  <sodipodi:namedview
     id="namedview1"
     pagecolor="#ffffff"
     bordercolor="#000000"
     borderopacity="0.25"
     inkscape:showpageshadow="2"
     inkscape:pageopacity="0.0"
     inkscape:pagecheckerboard="0"
     inkscape:deskcolor="#d1d1d1"
     inkscape:document-units="mm"
     inkscape:zoom="1.4627806"
     inkscape:cx="336.68754"
     inkscape:cy="229.35771"
     inkscape:window-width="1920"
     inkscape:window-height="1017"
     inkscape:window-x="-8"
     inkscape:window-y="-8"
     inkscape:window-maximized="1"
     inkscape:current-layer="layer1"
     showgrid="false" />
  <defs
     id="defs1" />
  <g
     inkscape:label="Layer 1"
     inkscape:groupmode="layer"
     id="layer1"
     transform="translate(-38.222653,-39.166015)">
    <g
       id="g49"
       inkscape:export-filename="placeholder-H.svg"
       inkscape:export-xdpi="96"
       inkscape:export-ydpi="96"
       inkscape:label="Placeholder-H">
      <path
         style="-inkscape-font-specification:'Gotham Bold';stroke-width:2.73493"
         d="m 55.846456,58.093544 v -11.34028 h -2.494861 v 4.487511 H 48.750681 V 46.753264 H 46.25582 v 11.34028 h 2.494861 v -4.552312 h 4.600914 v 4.552312 z"
         id="text8"
         aria-label="H" />
      <path
         style="color:#000000;fill:#1a1a1a;-inkscape-stroke:none"
         d="m 41.507812,39.166016 c -1.811271,0 -3.285156,1.473884 -3.285156,3.285156 v 19.863281 c 0,1.811272 1.473885,3.285156 3.285156,3.285156 h 19.865235 c 1.811272,0 3.285156,-1.473884 3.285156,-3.285156 V 42.451172 c 0,-1.811272 -1.473884,-3.285156 -3.285156,-3.285156 z m 0,1.007812 h 19.865235 c 1.270168,0 2.27539,1.007175 2.27539,2.277344 v 19.863281 c 0,1.270169 -1.005222,2.277344 -2.27539,2.277344 H 41.507812 c -1.270168,0 -2.277343,-1.007175 -2.277343,-2.277344 V 42.451172 c 0,-1.270169 1.007175,-2.277344 2.277343,-2.277344 z"
         id="rect8" />
    </g>
  </g>
</svg>
