<?xml version="1.0" encoding="UTF-8" standalone="no"?>
<!-- Created with Inkscape (http://www.inkscape.org/) -->

<svg
   width="26.435547mm"
   height="26.433594mm"
   viewBox="0 0 26.435547 26.433594"
   version="1.1"
   id="svg1"
   inkscape:version="1.3 (0e150ed6c4, 2023-07-21)"
   sodipodi:docname="chat-avatar-src.svg"
   xmlns:inkscape="http://www.inkscape.org/namespaces/inkscape"
   xmlns:sodipodi="http://sodipodi.sourceforge.net/DTD/sodipodi-0.dtd"
   xmlns="http://www.w3.org/2000/svg"
   xmlns:svg="http://www.w3.org/2000/svg">
  <sodipodi:namedview
     id="namedview1"
     pagecolor="#ffffff"
     bordercolor="#000000"
     borderopacity="0.25"
     inkscape:showpageshadow="2"
     inkscape:pageopacity="0.0"
     inkscape:pagecheckerboard="0"
     inkscape:deskcolor="#d1d1d1"
     inkscape:document-units="mm"
     inkscape:zoom="1.4627806"
     inkscape:cx="336.68754"
     inkscape:cy="229.35771"
     inkscape:window-width="1920"
     inkscape:window-height="1017"
     inkscape:window-x="-8"
     inkscape:window-y="-8"
     inkscape:window-maximized="1"
     inkscape:current-layer="layer1"
     showgrid="false" />
  <defs
     id="defs1" />
  <g
     inkscape:label="Layer 1"
     inkscape:groupmode="layer"
     id="layer1"
     transform="translate(-135.23047,-6.6796878)">
    <g
       id="g34"
       inkscape:export-filename="placeholder-E.svg"
       inkscape:export-xdpi="96"
       inkscape:export-ydpi="96"
       inkscape:label="Placeholder-E">
      <path
         style="-inkscape-font-specification:'Gotham Bold';stroke-width:2.73493"
         d="m 152.62766,25.607111 v -2.219455 h -6.15616 v -2.381458 h 5.34614 v -2.219455 h -5.34614 v -2.300457 h 6.07515 v -2.219455 h -8.55381 v 11.34028 z"
         id="text5"
         aria-label="E" />
      <path
         style="color:#000000;fill:#1a1a1a;-inkscape-stroke:none"
         d="m 138.51562,6.6796875 c -1.81127,0 -3.28515,1.4738846 -3.28515,3.2851563 V 29.828125 c 0,1.811272 1.47388,3.285156 3.28515,3.285156 h 19.86524 c 1.81127,0 3.28516,-1.473884 3.28516,-3.285156 V 9.9648438 c 0,-1.8112717 -1.47389,-3.2851563 -3.28516,-3.2851563 z m 0,1.0078125 h 19.86524 c 1.27017,0 2.27734,1.0071753 2.27734,2.2773438 V 29.828125 c 0,1.270168 -1.00717,2.277344 -2.27734,2.277344 h -19.86524 c -1.27016,0 -2.27734,-1.007176 -2.27734,-2.277344 V 9.9648438 c 0,-1.2701685 1.00718,-2.2773438 2.27734,-2.2773438 z"
         id="rect5" />
    </g>
  </g>
</svg>
