<?xml version="1.0" encoding="UTF-8" standalone="no"?>
<!-- Created with Inkscape (http://www.inkscape.org/) -->

<svg
   width="26.435547mm"
   height="26.435549mm"
   viewBox="0 0 26.435547 26.435549"
   version="1.1"
   id="svg1"
   inkscape:version="1.3 (0e150ed6c4, 2023-07-21)"
   sodipodi:docname="chat-avatar-src.svg"
   xmlns:inkscape="http://www.inkscape.org/namespaces/inkscape"
   xmlns:sodipodi="http://sodipodi.sourceforge.net/DTD/sodipodi-0.dtd"
   xmlns="http://www.w3.org/2000/svg"
   xmlns:svg="http://www.w3.org/2000/svg">
  <sodipodi:namedview
     id="namedview1"
     pagecolor="#ffffff"
     bordercolor="#000000"
     borderopacity="0.25"
     inkscape:showpageshadow="2"
     inkscape:pageopacity="0.0"
     inkscape:pagecheckerboard="0"
     inkscape:deskcolor="#d1d1d1"
     inkscape:document-units="mm"
     inkscape:zoom="1.4627806"
     inkscape:cx="336.68754"
     inkscape:cy="229.35771"
     inkscape:window-width="1920"
     inkscape:window-height="1017"
     inkscape:window-x="-8"
     inkscape:window-y="-8"
     inkscape:window-maximized="1"
     inkscape:current-layer="layer1"
     showgrid="false" />
  <defs
     id="defs1" />
  <g
     inkscape:label="Layer 1"
     inkscape:groupmode="layer"
     id="layer1"
     transform="translate(-135.23047,-103.62695)">
    <g
       id="g40"
       inkscape:export-filename="placeholder-W.svg"
       inkscape:export-xdpi="96"
       inkscape:export-ydpi="96"
       inkscape:label="Placeholder-W">
      <path
         style="-inkscape-font-specification:'Gotham Bold';stroke-width:2.73493"
         d="m 156.66156,111.21453 h -2.60827 l -2.34905,7.67899 -2.54347,-7.71139 h -2.13845 l -2.54346,7.71139 -2.34906,-7.67899 h -2.67307 l 3.8719,11.42128 h 2.17085 l 2.55967,-7.41978 2.55966,7.41978 h 2.17085 z"
         id="text23"
         aria-label="W" />
      <path
         style="color:#000000;fill:#1a1a1a;-inkscape-stroke:none"
         d="m 138.51562,103.62695 c -1.81127,0 -3.28515,1.47389 -3.28515,3.28516 v 19.86523 c 0,1.81128 1.47388,3.28516 3.28515,3.28516 h 19.86524 c 1.81127,0 3.28516,-1.47388 3.28516,-3.28516 v -19.86523 c 0,-1.81127 -1.47389,-3.28516 -3.28516,-3.28516 z m 0,1.00782 h 19.86524 c 1.27017,0 2.27734,1.00717 2.27734,2.27734 v 19.86523 c 0,1.27017 -1.00717,2.27539 -2.27734,2.27539 h -19.86524 c -1.27016,0 -2.27734,-1.00522 -2.27734,-2.27539 v -19.86523 c 0,-1.27017 1.00718,-2.27734 2.27734,-2.27734 z"
         id="rect23" />
    </g>
  </g>
</svg>
