<?xml version="1.0" encoding="UTF-8" standalone="no"?>
<!-- Created with Inkscape (http://www.inkscape.org/) -->

<svg
   width="26.435545mm"
   height="26.435549mm"
   viewBox="0 0 26.435545 26.435549"
   version="1.1"
   id="svg1"
   inkscape:version="1.3 (0e150ed6c4, 2023-07-21)"
   sodipodi:docname="chat-avatar-src.svg"
   xmlns:inkscape="http://www.inkscape.org/namespaces/inkscape"
   xmlns:sodipodi="http://sodipodi.sourceforge.net/DTD/sodipodi-0.dtd"
   xmlns="http://www.w3.org/2000/svg"
   xmlns:svg="http://www.w3.org/2000/svg">
  <sodipodi:namedview
     id="namedview1"
     pagecolor="#ffffff"
     bordercolor="#000000"
     borderopacity="0.25"
     inkscape:showpageshadow="2"
     inkscape:pageopacity="0.0"
     inkscape:pagecheckerboard="0"
     inkscape:deskcolor="#d1d1d1"
     inkscape:document-units="mm"
     inkscape:zoom="1.4627806"
     inkscape:cx="336.68754"
     inkscape:cy="229.35771"
     inkscape:window-width="1920"
     inkscape:window-height="1017"
     inkscape:window-x="-8"
     inkscape:window-y="-8"
     inkscape:window-maximized="1"
     inkscape:current-layer="layer1"
     showgrid="false" />
  <defs
     id="defs1" />
  <g
     inkscape:label="Layer 1"
     inkscape:groupmode="layer"
     id="layer1"
     transform="translate(-9.5722658,-70.117186)">
    <g
       id="g51"
       inkscape:export-filename="placeholder-M.svg"
       inkscape:export-xdpi="96"
       inkscape:export-ydpi="96"
       inkscape:label="Placeholder-M">
      <path
         style="-inkscape-font-specification:'Gotham Bold';stroke-width:2.73493"
         d="M 28.071825,89.045181 V 77.704902 h -2.689266 l -2.980874,4.795318 -2.980873,-4.795318 h -2.689266 v 11.340279 h 2.44626 V 81.6902 l 3.159078,4.795318 h 0.0648 l 3.191479,-4.843919 v 7.403582 z"
         id="text13"
         aria-label="M" />
      <path
         style="color:#000000;fill:#1a1a1a;-inkscape-stroke:none"
         d="m 12.857422,70.117187 c -1.811272,0 -3.2851564,1.473885 -3.2851564,3.285157 v 19.865234 c 0,1.811272 1.4738844,3.285156 3.2851564,3.285156 h 19.865234 c 1.811272,0 3.285157,-1.473884 3.285156,-3.285156 V 73.402344 c 0,-1.811272 -1.473884,-3.285157 -3.285156,-3.285157 z m 0,1.007813 H 32.722656 C 33.992825,71.125 35,72.132175 35,73.402344 v 19.865234 c 0,1.270169 -1.007175,2.277344 -2.277344,2.277344 H 12.857422 c -1.270169,0 -2.275391,-1.007175 -2.275391,-2.277344 V 73.402344 c 0,-1.270169 1.005222,-2.277344 2.275391,-2.277344 z"
         id="rect13" />
    </g>
  </g>
</svg>
