<?xml version="1.0" encoding="UTF-8" standalone="no"?>
<!-- Created with Inkscape (http://www.inkscape.org/) -->

<svg
   width="26.435545mm"
   height="26.435549mm"
   viewBox="0 0 26.435545 26.435549"
   version="1.1"
   id="svg1"
   inkscape:version="1.3 (0e150ed6c4, 2023-07-21)"
   sodipodi:docname="chat-avatar-src.svg"
   xmlns:inkscape="http://www.inkscape.org/namespaces/inkscape"
   xmlns:sodipodi="http://sodipodi.sourceforge.net/DTD/sodipodi-0.dtd"
   xmlns="http://www.w3.org/2000/svg"
   xmlns:svg="http://www.w3.org/2000/svg">
  <sodipodi:namedview
     id="namedview1"
     pagecolor="#ffffff"
     bordercolor="#000000"
     borderopacity="0.25"
     inkscape:showpageshadow="2"
     inkscape:pageopacity="0.0"
     inkscape:pagecheckerboard="0"
     inkscape:deskcolor="#d1d1d1"
     inkscape:document-units="mm"
     inkscape:zoom="1.4627806"
     inkscape:cx="336.68754"
     inkscape:cy="229.35771"
     inkscape:window-width="1920"
     inkscape:window-height="1017"
     inkscape:window-x="-8"
     inkscape:window-y="-8"
     inkscape:window-maximized="1"
     inkscape:current-layer="layer1"
     showgrid="false" />
  <defs
     id="defs1" />
  <g
     inkscape:label="Layer 1"
     inkscape:groupmode="layer"
     id="layer1"
     transform="translate(-9.5722658,-135.85743)">
    <g
       id="g58"
       inkscape:export-filename="placeholder-Y.svg"
       inkscape:export-xdpi="96"
       inkscape:export-ydpi="96"
       inkscape:label="Placeholder-Y">
      <path
         style="-inkscape-font-specification:'Gotham Bold';stroke-width:2.73493"
         d="m 28.007027,143.44517 h -2.83507 l -2.754068,4.55231 -2.705466,-4.55231 h -2.916072 l 4.357907,6.86897 v 4.47131 h 2.494862 v -4.51992 z"
         id="text25"
         aria-label="Y" />
      <path
         style="color:#000000;fill:#1a1a1a;-inkscape-stroke:none"
         d="m 12.857422,135.85742 c -1.811272,0 -3.2851564,1.47389 -3.2851564,3.28516 v 19.86523 c 0,1.81127 1.4738844,3.28516 3.2851564,3.28516 h 19.865234 c 1.811272,0 3.285156,-1.47389 3.285156,-3.28516 v -19.86523 c 0,-1.81127 -1.473884,-3.28516 -3.285156,-3.28516 z m 0,1.00781 h 19.865234 c 1.270169,0 2.277344,1.00718 2.277344,2.27735 v 19.86523 c 0,1.27017 -1.007175,2.27735 -2.277344,2.27735 H 12.857422 c -1.270169,0 -2.275391,-1.00718 -2.275391,-2.27735 v -19.86523 c 0,-1.27017 1.005222,-2.27735 2.275391,-2.27735 z"
         id="rect25" />
    </g>
  </g>
</svg>
