<?xml version="1.0" encoding="UTF-8" standalone="no"?>
<!-- Created with Inkscape (http://www.inkscape.org/) -->

<svg
   width="26.435547mm"
   height="26.435549mm"
   viewBox="0 0 26.435547 26.435549"
   version="1.1"
   id="svg1"
   inkscape:version="1.3 (0e150ed6c4, 2023-07-21)"
   sodipodi:docname="chat-avatar-src.svg"
   xmlns:inkscape="http://www.inkscape.org/namespaces/inkscape"
   xmlns:sodipodi="http://sodipodi.sourceforge.net/DTD/sodipodi-0.dtd"
   xmlns="http://www.w3.org/2000/svg"
   xmlns:svg="http://www.w3.org/2000/svg">
  <sodipodi:namedview
     id="namedview1"
     pagecolor="#ffffff"
     bordercolor="#000000"
     borderopacity="0.25"
     inkscape:showpageshadow="2"
     inkscape:pageopacity="0.0"
     inkscape:pagecheckerboard="0"
     inkscape:deskcolor="#d1d1d1"
     inkscape:document-units="mm"
     inkscape:zoom="1.4627806"
     inkscape:cx="336.68754"
     inkscape:cy="229.35771"
     inkscape:window-width="1920"
     inkscape:window-height="1017"
     inkscape:window-x="-8"
     inkscape:window-y="-8"
     inkscape:window-maximized="1"
     inkscape:current-layer="layer1"
     showgrid="false" />
  <defs
     id="defs1" />
  <g
     inkscape:label="Layer 1"
     inkscape:groupmode="layer"
     id="layer1"
     transform="translate(-99.718752,-70.117186)">
    <g
       id="g43"
       inkscape:export-filename="placeholder-P.svg"
       inkscape:export-xdpi="96"
       inkscape:export-ydpi="96"
       inkscape:label="Placeholder-P">
      <path
         style="-inkscape-font-specification:'Gotham Bold';stroke-width:2.73493"
         d="m 117.47315,81.657799 v -0.0324 c 0,-2.316657 -1.63625,-3.920496 -4.34171,-3.920496 h -4.63332 v 11.340279 h 2.49487 v -3.402084 h 1.89544 c 2.54346,0 4.58472,-1.360833 4.58472,-3.985299 z m -2.52727,0.0486 c 0,0.972024 -0.72902,1.717243 -1.97645,1.717243 h -1.97644 v -3.466886 h 1.92784 c 1.24743,0 2.02505,0.599415 2.02505,1.717243 z"
         id="text16"
         aria-label="P" />
      <path
         style="color:#000000;fill:#1a1a1a;-inkscape-stroke:none"
         d="m 103.00391,70.117187 c -1.81128,0 -3.28516,1.473885 -3.28516,3.285157 v 19.865234 c 0,1.811272 1.47388,3.285156 3.28516,3.285156 h 19.86523 c 1.81127,0 3.28516,-1.473884 3.28516,-3.285156 V 73.402344 c 0,-1.811272 -1.47389,-3.285157 -3.28516,-3.285157 z m 0,1.007813 h 19.86523 c 1.27017,0 2.27734,1.007175 2.27734,2.277344 v 19.865234 c 0,1.270169 -1.00717,2.277344 -2.27734,2.277344 h -19.86523 c -1.27017,0 -2.27539,-1.007175 -2.27539,-2.277344 V 73.402344 c 0,-1.270169 1.00522,-2.277344 2.27539,-2.277344 z"
         id="rect16" />
    </g>
  </g>
</svg>
