<?xml version="1.0" encoding="UTF-8" standalone="no"?>
<!-- Created with Inkscape (http://www.inkscape.org/) -->

<svg
   width="26.435543mm"
   height="26.435549mm"
   viewBox="0 0 26.435543 26.435549"
   version="1.1"
   id="svg1"
   inkscape:version="1.3 (0e150ed6c4, 2023-07-21)"
   sodipodi:docname="chat-avatar-src.svg"
   xmlns:inkscape="http://www.inkscape.org/namespaces/inkscape"
   xmlns:sodipodi="http://sodipodi.sourceforge.net/DTD/sodipodi-0.dtd"
   xmlns="http://www.w3.org/2000/svg"
   xmlns:svg="http://www.w3.org/2000/svg">
  <sodipodi:namedview
     id="namedview1"
     pagecolor="#ffffff"
     bordercolor="#000000"
     borderopacity="0.25"
     inkscape:showpageshadow="2"
     inkscape:pageopacity="0.0"
     inkscape:pagecheckerboard="0"
     inkscape:deskcolor="#d1d1d1"
     inkscape:document-units="mm"
     inkscape:zoom="1.4627806"
     inkscape:cx="336.68754"
     inkscape:cy="229.35771"
     inkscape:window-width="1920"
     inkscape:window-height="1017"
     inkscape:window-x="-8"
     inkscape:window-y="-8"
     inkscape:window-maximized="1"
     inkscape:current-layer="layer1"
     showgrid="false" />
  <defs
     id="defs1" />
  <g
     inkscape:label="Layer 1"
     inkscape:groupmode="layer"
     id="layer1"
     transform="translate(-67.126955,-135.85743)">
    <g
       id="g56"
       inkscape:export-filename="placeholder-default.svg"
       inkscape:export-xdpi="96"
       inkscape:export-ydpi="96"
       inkscape:label="Placeholder-Questionmark">
      <path
         style="-inkscape-font-specification:'Gotham Bold';stroke-width:2.73493"
         d="m 78.449741,148.22428 -0.081,0.081 0.372609,2.62446 h 1.65244 l 0.178205,-0.98822 c 1.765843,-0.35641 3.191479,-1.19883 3.191479,-3.27248 0,-2.17086 -1.58764,-3.36969 -3.920497,-3.36969 -1.765844,0 -3.029475,0.71282 -3.969098,1.74965 l 1.490437,1.63624 c 0.745218,-0.74522 1.522837,-1.11783 2.43006,-1.11783 0.939623,0 1.490436,0.42121 1.490436,1.16643 0,0.87482 -0.793819,1.40943 -2.835069,1.49043 z m 2.381458,6.56117 v -2.59207 h -2.624464 v 2.59207 z"
         id="text27"
         aria-label="?" />
      <path
         style="color:#000000;fill:#1a1a1a;-inkscape-stroke:none"
         d="m 70.412109,135.85742 c -1.811271,0 -3.285156,1.47389 -3.285156,3.28516 v 19.86523 c 0,1.81127 1.473885,3.28516 3.285156,3.28516 h 19.865235 c 1.811271,0 3.285156,-1.47389 3.285156,-3.28516 v -19.86523 c 0,-1.81127 -1.473885,-3.28516 -3.285156,-3.28516 z m 0,1.00781 h 19.865235 c 1.270168,0 2.277343,1.00718 2.277343,2.27735 v 19.86523 c 0,1.27017 -1.007175,2.27735 -2.277343,2.27735 H 70.412109 c -1.270168,0 -2.27539,-1.00718 -2.27539,-2.27735 v -19.86523 c 0,-1.27017 1.005222,-2.27735 2.27539,-2.27735 z"
         id="rect27" />
    </g>
  </g>
</svg>
