<?xml version="1.0" encoding="UTF-8" standalone="no"?>
<!-- Created with Inkscape (http://www.inkscape.org/) -->

<svg
   width="26.435547mm"
   height="26.433594mm"
   viewBox="0 0 26.435547 26.433594"
   version="1.1"
   id="svg1"
   inkscape:version="1.3 (0e150ed6c4, 2023-07-21)"
   sodipodi:docname="chat-avatar-src.svg"
   xmlns:inkscape="http://www.inkscape.org/namespaces/inkscape"
   xmlns:sodipodi="http://sodipodi.sourceforge.net/DTD/sodipodi-0.dtd"
   xmlns="http://www.w3.org/2000/svg"
   xmlns:svg="http://www.w3.org/2000/svg">
  <sodipodi:namedview
     id="namedview1"
     pagecolor="#ffffff"
     bordercolor="#000000"
     borderopacity="0.25"
     inkscape:showpageshadow="2"
     inkscape:pageopacity="0.0"
     inkscape:pagecheckerboard="0"
     inkscape:deskcolor="#d1d1d1"
     inkscape:document-units="mm"
     inkscape:zoom="1.4627806"
     inkscape:cx="336.68754"
     inkscape:cy="229.35771"
     inkscape:window-width="1920"
     inkscape:window-height="1017"
     inkscape:window-x="-8"
     inkscape:window-y="-8"
     inkscape:window-maximized="1"
     inkscape:current-layer="layer1"
     showgrid="false" />
  <defs
     id="defs1" />
  <g
     inkscape:label="Layer 1"
     inkscape:groupmode="layer"
     id="layer1"
     transform="translate(-99.718752,-39.166015)">
    <g
       id="g42"
       inkscape:export-filename="placeholder-J.svg"
       inkscape:export-xdpi="96"
       inkscape:export-ydpi="96"
       inkscape:label="Placeholder-J">
      <path
         style="-inkscape-font-specification:'Gotham Bold';stroke-width:2.73493"
         d="m 115.93411,54.173047 v -7.419783 h -2.55967 v 7.306381 c 0,1.312232 -0.58321,1.879246 -1.52283,1.879246 -0.79382,0 -1.42564,-0.42121 -2.07365,-1.134028 l -1.57144,1.749643 c 0.77762,0.923423 1.94405,1.701042 3.70989,1.701042 2.39766,0 4.0177,-1.328433 4.0177,-4.082501 z"
         id="text10"
         aria-label="J" />
      <path
         style="color:#000000;fill:#1a1a1a;-inkscape-stroke:none"
         d="m 103.00391,39.166016 c -1.81128,0 -3.28516,1.473884 -3.28516,3.285156 v 19.863281 c 0,1.811272 1.47388,3.285156 3.28516,3.285156 h 19.86523 c 1.81127,0 3.28516,-1.473884 3.28516,-3.285156 V 42.451172 c 0,-1.811272 -1.47389,-3.285156 -3.28516,-3.285156 z m 0,1.007812 h 19.86523 c 1.27017,0 2.27734,1.007175 2.27734,2.277344 v 19.863281 c 0,1.270169 -1.00717,2.277344 -2.27734,2.277344 h -19.86523 c -1.27017,0 -2.27539,-1.007175 -2.27539,-2.277344 V 42.451172 c 0,-1.270169 1.00522,-2.277344 2.27539,-2.277344 z"
         id="rect10" />
    </g>
  </g>
</svg>
