<?xml version="1.0" encoding="UTF-8" standalone="no"?>
<!-- Created with Inkscape (http://www.inkscape.org/) -->

<svg
   width="26.435547mm"
   height="26.435549mm"
   viewBox="0 0 26.435547 26.435549"
   version="1.1"
   id="svg1"
   inkscape:version="1.3 (0e150ed6c4, 2023-07-21)"
   sodipodi:docname="chat-avatar-src.svg"
   xmlns:inkscape="http://www.inkscape.org/namespaces/inkscape"
   xmlns:sodipodi="http://sodipodi.sourceforge.net/DTD/sodipodi-0.dtd"
   xmlns="http://www.w3.org/2000/svg"
   xmlns:svg="http://www.w3.org/2000/svg">
  <sodipodi:namedview
     id="namedview1"
     pagecolor="#ffffff"
     bordercolor="#000000"
     borderopacity="0.25"
     inkscape:showpageshadow="2"
     inkscape:pageopacity="0.0"
     inkscape:pagecheckerboard="0"
     inkscape:deskcolor="#d1d1d1"
     inkscape:document-units="mm"
     inkscape:zoom="1.4627806"
     inkscape:cx="336.68754"
     inkscape:cy="229.35771"
     inkscape:window-width="1920"
     inkscape:window-height="1017"
     inkscape:window-x="-8"
     inkscape:window-y="-8"
     inkscape:window-maximized="1"
     inkscape:current-layer="layer1"
     showgrid="false" />
  <defs
     id="defs1" />
  <g
     inkscape:label="Layer 1"
     inkscape:groupmode="layer"
     id="layer1"
     transform="translate(-38.222653,-70.117186)">
    <g
       id="g52"
       inkscape:export-filename="placeholder-N.svg"
       inkscape:export-xdpi="96"
       inkscape:export-ydpi="96"
       inkscape:label="Placeholder-N">
      <path
         style="-inkscape-font-specification:'Gotham Bold';stroke-width:2.73493"
         d="M 56.089457,89.045181 V 77.704902 h -2.462461 v 6.982372 l -5.313731,-6.982372 h -2.300457 v 11.340279 h 2.462461 v -7.209177 l 5.491935,7.209177 z"
         id="text14"
         aria-label="N" />
      <path
         style="color:#000000;fill:#1a1a1a;-inkscape-stroke:none"
         d="m 41.507812,70.117187 c -1.811271,0 -3.285156,1.473885 -3.285156,3.285157 v 19.865234 c 0,1.811272 1.473885,3.285156 3.285156,3.285156 h 19.865235 c 1.811272,0 3.285156,-1.473884 3.285156,-3.285156 V 73.402344 c 0,-1.811272 -1.473884,-3.285157 -3.285156,-3.285157 z m 0,1.007813 h 19.865235 c 1.270168,0 2.27539,1.007175 2.27539,2.277344 v 19.865234 c 0,1.270169 -1.005222,2.277344 -2.27539,2.277344 H 41.507812 c -1.270168,0 -2.277343,-1.007175 -2.277343,-2.277344 V 73.402344 c 0,-1.270169 1.007175,-2.277344 2.277343,-2.277344 z"
         id="rect14" />
    </g>
  </g>
</svg>
