<?xml version="1.0" encoding="UTF-8" standalone="no"?>
<!-- Created with Inkscape (http://www.inkscape.org/) -->

<svg
   width="26.435547mm"
   height="26.433594mm"
   viewBox="0 0 26.435547 26.433594"
   version="1.1"
   id="svg1"
   inkscape:version="1.3 (0e150ed6c4, 2023-07-21)"
   sodipodi:docname="chat-avatar-src.svg"
   xmlns:inkscape="http://www.inkscape.org/namespaces/inkscape"
   xmlns:sodipodi="http://sodipodi.sourceforge.net/DTD/sodipodi-0.dtd"
   xmlns="http://www.w3.org/2000/svg"
   xmlns:svg="http://www.w3.org/2000/svg">
  <sodipodi:namedview
     id="namedview1"
     pagecolor="#ffffff"
     bordercolor="#000000"
     borderopacity="0.25"
     inkscape:showpageshadow="2"
     inkscape:pageopacity="0.0"
     inkscape:pagecheckerboard="0"
     inkscape:deskcolor="#d1d1d1"
     inkscape:document-units="mm"
     inkscape:zoom="1.4627806"
     inkscape:cx="336.68754"
     inkscape:cy="229.35771"
     inkscape:window-width="1920"
     inkscape:window-height="1017"
     inkscape:window-x="-8"
     inkscape:window-y="-8"
     inkscape:window-maximized="1"
     inkscape:current-layer="layer1"
     showgrid="false" />
  <defs
     id="defs1" />
  <g
     inkscape:label="Layer 1"
     inkscape:groupmode="layer"
     id="layer1"
     transform="translate(-38.222653,-6.6796878)">
    <g
       id="g31"
       inkscape:export-filename="placeholder-B.svg"
       inkscape:export-xdpi="96"
       inkscape:export-ydpi="96"
       inkscape:label="Placeholder-B">
      <path
         style="font-weight:bold;font-size:16.2004px;font-family:Gotham;-inkscape-font-specification:'Gotham Bold';text-align:center;text-anchor:middle;stroke-width:2.73493"
         d="m 56.202866,22.496634 v -0.0324 c 0,-1.522837 -0.81002,-2.284256 -2.122252,-2.786468 0.81002,-0.453611 1.490436,-1.166429 1.490436,-2.446261 v -0.0324 c 0,-1.782044 -1.425635,-2.932273 -3.742292,-2.932273 h -5.26513 v 11.34028 h 5.394733 c 2.559663,0 4.244505,-1.036826 4.244505,-3.110477 z m -3.110477,-4.843919 c 0,0.842421 -0.696617,1.198829 -1.798244,1.198829 h -2.300457 v -2.397659 h 2.462461 c 1.053026,0 1.63624,0.421211 1.63624,1.166429 z m 0.631816,4.536112 c 0,0.84242 -0.664217,1.23123 -1.765844,1.23123 h -2.964673 v -2.494861 h 2.883671 c 1.279832,0 1.846846,0.469811 1.846846,1.23123 z"
         id="path4"
         aria-label="B" />
      <path
         style="color:#000000;fill:#1a1a1a;-inkscape-stroke:none"
         d="m 41.507812,6.6796875 c -1.811271,0 -3.285156,1.4738846 -3.285156,3.2851563 V 29.828125 c 0,1.811272 1.473885,3.285156 3.285156,3.285156 h 19.865235 c 1.811272,0 3.285156,-1.473884 3.285156,-3.285156 V 9.9648438 c 0,-1.8112717 -1.473884,-3.2851563 -3.285156,-3.2851563 z m 0,1.0078125 h 19.865235 c 1.270168,0 2.27539,1.0071753 2.27539,2.2773438 V 29.828125 c 0,1.270168 -1.005222,2.277344 -2.27539,2.277344 H 41.507812 c -1.270168,0 -2.277343,-1.007176 -2.277343,-2.277344 V 9.9648438 c 0,-1.2701685 1.007175,-2.2773438 2.277343,-2.2773438 z"
         id="path3" />
    </g>
  </g>
</svg>
