<?xml version="1.0" encoding="UTF-8" standalone="no"?>
<!-- Created with Inkscape (http://www.inkscape.org/) -->

<svg
   width="26.435545mm"
   height="26.433594mm"
   viewBox="0 0 26.435545 26.433594"
   version="1.1"
   id="svg1"
   inkscape:version="1.3 (0e150ed6c4, 2023-07-21)"
   sodipodi:docname="chat-avatar-src.svg"
   xmlns:inkscape="http://www.inkscape.org/namespaces/inkscape"
   xmlns:sodipodi="http://sodipodi.sourceforge.net/DTD/sodipodi-0.dtd"
   xmlns="http://www.w3.org/2000/svg"
   xmlns:svg="http://www.w3.org/2000/svg">
  <sodipodi:namedview
     id="namedview1"
     pagecolor="#ffffff"
     bordercolor="#000000"
     borderopacity="0.25"
     inkscape:showpageshadow="2"
     inkscape:pageopacity="0.0"
     inkscape:pagecheckerboard="0"
     inkscape:deskcolor="#d1d1d1"
     inkscape:document-units="mm"
     inkscape:zoom="1.4627806"
     inkscape:cx="336.68754"
     inkscape:cy="229.35771"
     inkscape:window-width="1920"
     inkscape:window-height="1017"
     inkscape:window-x="-8"
     inkscape:window-y="-8"
     inkscape:window-maximized="1"
     inkscape:current-layer="layer1"
     showgrid="false" />
  <defs
     id="defs1" />
  <g
     inkscape:label="Layer 1"
     inkscape:groupmode="layer"
     id="layer1"
     transform="translate(-9.5722658,-6.6796878)">
    <g
       id="g30"
       inkscape:export-filename="placeholder-A.svg"
       inkscape:export-xdpi="96"
       inkscape:export-ydpi="96"
       inkscape:label="Placeholder-A">
      <path
         style="font-weight:bold;font-size:16.2004px;font-family:Gotham;-inkscape-font-specification:'Gotham Bold';text-align:center;text-anchor:middle;stroke-width:2.73493"
         d="M 28.412026,25.607111 23.551907,14.185829 H 21.25145 l -4.86012,11.421282 h 2.543463 l 1.036825,-2.543463 h 4.795319 l 1.036825,2.543463 z M 23.875915,20.860394 H 20.86264 l 1.506637,-3.677491 z"
         id="path2"
         aria-label="A" />
      <path
         style="color:#000000;fill:#1a1a1a;-inkscape-stroke:none"
         d="m 12.857422,6.6796875 c -1.811272,0 -3.2851564,1.4738846 -3.2851564,3.2851563 V 29.828125 c 0,1.811272 1.4738844,3.285156 3.2851564,3.285156 h 19.865234 c 1.811272,0 3.285157,-1.473884 3.285156,-3.285156 V 9.9648438 c 0,-1.8112717 -1.473884,-3.2851563 -3.285156,-3.2851563 z m 0,1.0078125 H 32.722656 C 33.992825,7.6875 35,8.6946753 35,9.9648438 V 29.828125 c 0,1.270168 -1.007175,2.277344 -2.277344,2.277344 H 12.857422 c -1.270169,0 -2.275391,-1.007176 -2.275391,-2.277344 V 9.9648438 c 0,-1.2701685 1.005222,-2.2773438 2.275391,-2.2773438 z"
         id="path1" />
    </g>
  </g>
</svg>
