<?xml version="1.0" encoding="UTF-8" standalone="no"?>
<!-- Created with Inkscape (http://www.inkscape.org/) -->

<svg
   width="26.433594mm"
   height="26.435549mm"
   viewBox="0 0 26.433594 26.435549"
   version="1.1"
   id="svg1"
   inkscape:version="1.3 (0e150ed6c4, 2023-07-21)"
   sodipodi:docname="chat-avatar-src.svg"
   xmlns:inkscape="http://www.inkscape.org/namespaces/inkscape"
   xmlns:sodipodi="http://sodipodi.sourceforge.net/DTD/sodipodi-0.dtd"
   xmlns="http://www.w3.org/2000/svg"
   xmlns:svg="http://www.w3.org/2000/svg">
  <sodipodi:namedview
     id="namedview1"
     pagecolor="#ffffff"
     bordercolor="#000000"
     borderopacity="0.25"
     inkscape:showpageshadow="2"
     inkscape:pageopacity="0.0"
     inkscape:pagecheckerboard="0"
     inkscape:deskcolor="#d1d1d1"
     inkscape:document-units="mm"
     inkscape:zoom="1.4627806"
     inkscape:cx="336.68754"
     inkscape:cy="229.35771"
     inkscape:window-width="1920"
     inkscape:window-height="1017"
     inkscape:window-x="-8"
     inkscape:window-y="-8"
     inkscape:window-maximized="1"
     inkscape:current-layer="layer1"
     showgrid="false" />
  <defs
     id="defs1" />
  <g
     inkscape:label="Layer 1"
     inkscape:groupmode="layer"
     id="layer1"
     transform="translate(-170.61914,-70.117186)">
    <g
       id="g37"
       inkscape:export-filename="placeholder-R.svg"
       inkscape:export-xdpi="96"
       inkscape:export-ydpi="96"
       inkscape:label="Placeholder-R">
      <path
         style="-inkscape-font-specification:'Gotham Bold';stroke-width:2.73493"
         d="m 188.75281,89.045181 -2.77027,-4.0501 c 1.44184,-0.534613 2.43006,-1.684841 2.43006,-3.515486 v -0.0324 c 0,-2.332858 -1.60384,-3.742292 -4.27691,-3.742292 h -5.18412 v 11.340279 h 2.49486 v -3.628889 h 1.96025 l 2.43006,3.628889 z m -2.86747,-7.435983 c 0,0.955824 -0.69662,1.603839 -1.91165,1.603839 h -2.52726 v -3.25628 h 2.47866 c 1.21503,0 1.96025,0.550814 1.96025,1.62004 z"
         id="text18"
         aria-label="R" />
      <path
         style="color:#000000;fill:#1a1a1a;-inkscape-stroke:none"
         d="m 173.9043,70.117187 c -1.81127,0 -3.28516,1.473885 -3.28516,3.285157 v 19.865234 c 0,1.811272 1.47389,3.285156 3.28516,3.285156 h 19.86328 c 1.81127,0 3.28515,-1.473884 3.28515,-3.285156 V 73.402344 c 0,-1.811272 -1.47388,-3.285157 -3.28515,-3.285157 z m 0,1.007813 h 19.86328 c 1.27017,0 2.27734,1.007175 2.27734,2.277344 v 19.865234 c 0,1.270169 -1.00717,2.277344 -2.27734,2.277344 H 173.9043 c -1.27017,0 -2.27735,-1.007175 -2.27735,-2.277344 V 73.402344 c 0,-1.270169 1.00718,-2.277344 2.27735,-2.277344 z"
         id="rect18" />
    </g>
  </g>
</svg>
