<?xml version="1.0" encoding="UTF-8" standalone="no"?>
<!-- Created with Inkscape (http://www.inkscape.org/) -->

<svg
   width="26.435545mm"
   height="26.435549mm"
   viewBox="0 0 26.435545 26.435549"
   version="1.1"
   id="svg1"
   inkscape:version="1.3 (0e150ed6c4, 2023-07-21)"
   sodipodi:docname="chat-avatar-src.svg"
   xmlns:inkscape="http://www.inkscape.org/namespaces/inkscape"
   xmlns:sodipodi="http://sodipodi.sourceforge.net/DTD/sodipodi-0.dtd"
   xmlns="http://www.w3.org/2000/svg"
   xmlns:svg="http://www.w3.org/2000/svg">
  <sodipodi:namedview
     id="namedview1"
     pagecolor="#ffffff"
     bordercolor="#000000"
     borderopacity="0.25"
     inkscape:showpageshadow="2"
     inkscape:pageopacity="0.0"
     inkscape:pagecheckerboard="0"
     inkscape:deskcolor="#d1d1d1"
     inkscape:document-units="mm"
     inkscape:zoom="1.4627806"
     inkscape:cx="336.68754"
     inkscape:cy="229.35771"
     inkscape:window-width="1920"
     inkscape:window-height="1017"
     inkscape:window-x="-8"
     inkscape:window-y="-8"
     inkscape:window-maximized="1"
     inkscape:current-layer="layer1"
     showgrid="false" />
  <defs
     id="defs1" />
  <g
     inkscape:label="Layer 1"
     inkscape:groupmode="layer"
     id="layer1"
     transform="translate(-9.5722658,-103.62695)">
    <g
       id="g53"
       inkscape:export-filename="placeholder-S.svg"
       inkscape:export-xdpi="96"
       inkscape:export-ydpi="96"
       inkscape:label="Placeholder-S">
      <path
         style="-inkscape-font-specification:'Gotham Bold';stroke-width:2.73493"
         d="m 26.775798,119.20133 v -0.0324 c 0,-1.97645 -1.296031,-2.80267 -3.596488,-3.40209 -1.960248,-0.50221 -2.44626,-0.74522 -2.44626,-1.49043 v -0.0324 c 0,-0.55081 0.502212,-0.98822 1.458035,-0.98822 0.955824,0 1.944048,0.42121 2.948473,1.11783 l 1.296032,-1.87925 c -1.150228,-0.92342 -2.559663,-1.44183 -4.212104,-1.44183 -2.316657,0 -3.969098,1.36083 -3.969098,3.41828 v 0.0324 c 0,2.25186 1.474237,2.88367 3.758493,3.46689 1.895447,0.48601 2.284256,0.81002 2.284256,1.44183 v 0.0324 c 0,0.66422 -0.615615,1.06923 -1.63624,1.06923 -1.296032,0 -2.365258,-0.53461 -3.385883,-1.37703 l -1.474237,1.76584 c 1.360834,1.21503 3.094277,1.81444 4.811519,1.81444 2.44626,0 4.163502,-1.26363 4.163502,-3.51548 z"
         id="text19"
         aria-label="S" />
      <path
         style="color:#000000;fill:#1a1a1a;-inkscape-stroke:none"
         d="m 12.857422,103.62695 c -1.811272,0 -3.2851564,1.47389 -3.2851564,3.28516 v 19.86523 c 0,1.81128 1.4738844,3.28516 3.2851564,3.28516 h 19.865234 c 1.811272,0 3.285156,-1.47388 3.285156,-3.28516 v -19.86523 c 0,-1.81127 -1.473884,-3.28516 -3.285156,-3.28516 z m 0,1.00782 h 19.865234 c 1.270169,0 2.277344,1.00717 2.277344,2.27734 v 19.86523 c 0,1.27017 -1.007175,2.27539 -2.277344,2.27539 H 12.857422 c -1.270169,0 -2.275391,-1.00522 -2.275391,-2.27539 v -19.86523 c 0,-1.27017 1.005222,-2.27734 2.275391,-2.27734 z"
         id="rect19" />
    </g>
  </g>
</svg>
