<?xml version="1.0" encoding="UTF-8" standalone="no"?>
<!-- Created with Inkscape (http://www.inkscape.org/) -->

<svg
   width="26.435547mm"
   height="26.433594mm"
   viewBox="0 0 26.435547 26.433594"
   version="1.1"
   id="svg1"
   inkscape:version="1.3 (0e150ed6c4, 2023-07-21)"
   sodipodi:docname="chat-avatar-src.svg"
   xmlns:inkscape="http://www.inkscape.org/namespaces/inkscape"
   xmlns:sodipodi="http://sodipodi.sourceforge.net/DTD/sodipodi-0.dtd"
   xmlns="http://www.w3.org/2000/svg"
   xmlns:svg="http://www.w3.org/2000/svg">
  <sodipodi:namedview
     id="namedview1"
     pagecolor="#ffffff"
     bordercolor="#000000"
     borderopacity="0.25"
     inkscape:showpageshadow="2"
     inkscape:pageopacity="0.0"
     inkscape:pagecheckerboard="0"
     inkscape:deskcolor="#d1d1d1"
     inkscape:document-units="mm"
     inkscape:zoom="1.4627806"
     inkscape:cx="336.68754"
     inkscape:cy="229.35771"
     inkscape:window-width="1920"
     inkscape:window-height="1017"
     inkscape:window-x="-8"
     inkscape:window-y="-8"
     inkscape:window-maximized="1"
     inkscape:current-layer="layer1"
     showgrid="false" />
  <defs
     id="defs1" />
  <g
     inkscape:label="Layer 1"
     inkscape:groupmode="layer"
     id="layer1"
     transform="translate(-99.718752,-6.6796878)">
    <g
       id="g33"
       inkscape:export-filename="placeholder-D.svg"
       inkscape:export-xdpi="96"
       inkscape:export-ydpi="96"
       inkscape:label="Placeholder-D">
      <path
         style="-inkscape-font-specification:'Gotham Bold';stroke-width:2.73493"
         d="m 118.1617,19.896467 v -0.0324 c 0,-3.191479 -2.46246,-5.637739 -6.02655,-5.637739 h -4.42271 v 11.34028 h 4.42271 c 3.56409,0 6.02655,-2.478662 6.02655,-5.67014 z m -2.60827,0.0324 c 0,2.008849 -1.37703,3.385883 -3.41828,3.385883 h -1.92785 v -6.836569 h 1.92785 c 2.04125,0 3.41828,1.409435 3.41828,3.418285 z"
         id="text4"
         aria-label="D" />
      <path
         style="color:#000000;fill:#1a1a1a;-inkscape-stroke:none"
         d="m 103.00391,6.6796875 c -1.81128,0 -3.28516,1.4738846 -3.28516,3.2851563 V 29.828125 c 0,1.811272 1.47388,3.285156 3.28516,3.285156 h 19.86523 c 1.81127,0 3.28516,-1.473884 3.28516,-3.285156 V 9.9648438 c 0,-1.8112717 -1.47389,-3.2851563 -3.28516,-3.2851563 z m 0,1.0078125 h 19.86523 c 1.27017,0 2.27734,1.0071753 2.27734,2.2773438 V 29.828125 c 0,1.270168 -1.00717,2.277344 -2.27734,2.277344 h -19.86523 c -1.27017,0 -2.27539,-1.007176 -2.27539,-2.277344 V 9.9648438 c 0,-1.2701685 1.00522,-2.2773438 2.27539,-2.2773438 z"
         id="rect4" />
    </g>
  </g>
</svg>
